ISO-10303-21;
HEADER;
/* Generated by software containing ST-Developer
 * from STEP Tools, Inc. (www.steptools.com) 
 */

FILE_DESCRIPTION(
/* description */ (''),
/* implementation_level */ '2;1');

FILE_NAME(
/* name */ 'Bottom_enclosure_db.step',
/* time_stamp */ '2025-05-07T16:26:33-05:00',
/* author */ (''),
/* organization */ (''),
/* preprocessor_version */ 'ST-DEVELOPER v20.1',
/* originating_system */ 'Autodesk Translation Framework v14.4.0.0',
/* authorisation */ '');

FILE_SCHEMA (('AUTOMOTIVE_DESIGN { 1 0 10303 214 3 1 1 }'));
ENDSEC;

DATA;
#10=MECHANICAL_DESIGN_GEOMETRIC_PRESENTATION_REPRESENTATION('',(#13),#481);
#11=SHAPE_REPRESENTATION_RELATIONSHIP('SRR','None',#488,#12);
#12=ADVANCED_BREP_SHAPE_REPRESENTATION('',(#14),#480);
#13=STYLED_ITEM('',(#497),#14);
#14=MANIFOLD_SOLID_BREP('Body1',#289);
#15=FACE_BOUND('',#59,.T.);
#16=FACE_BOUND('',#65,.T.);
#17=FACE_BOUND('',#66,.T.);
#18=FACE_BOUND('',#67,.T.);
#19=FACE_BOUND('',#68,.T.);
#20=FACE_BOUND('',#70,.T.);
#21=FACE_BOUND('',#71,.T.);
#22=FACE_BOUND('',#72,.T.);
#23=FACE_BOUND('',#73,.T.);
#24=PLANE('',#315);
#25=PLANE('',#316);
#26=PLANE('',#317);
#27=PLANE('',#318);
#28=PLANE('',#319);
#29=PLANE('',#320);
#30=PLANE('',#321);
#31=PLANE('',#322);
#32=PLANE('',#323);
#33=PLANE('',#324);
#34=PLANE('',#325);
#35=FACE_OUTER_BOUND('',#50,.T.);
#36=FACE_OUTER_BOUND('',#51,.T.);
#37=FACE_OUTER_BOUND('',#52,.T.);
#38=FACE_OUTER_BOUND('',#53,.T.);
#39=FACE_OUTER_BOUND('',#54,.T.);
#40=FACE_OUTER_BOUND('',#55,.T.);
#41=FACE_OUTER_BOUND('',#56,.T.);
#42=FACE_OUTER_BOUND('',#57,.T.);
#43=FACE_OUTER_BOUND('',#58,.T.);
#44=FACE_OUTER_BOUND('',#60,.T.);
#45=FACE_OUTER_BOUND('',#61,.T.);
#46=FACE_OUTER_BOUND('',#62,.T.);
#47=FACE_OUTER_BOUND('',#63,.T.);
#48=FACE_OUTER_BOUND('',#64,.T.);
#49=FACE_OUTER_BOUND('',#69,.T.);
#50=EDGE_LOOP('',(#198,#199,#200,#201));
#51=EDGE_LOOP('',(#202,#203,#204,#205));
#52=EDGE_LOOP('',(#206,#207,#208,#209));
#53=EDGE_LOOP('',(#210,#211,#212,#213));
#54=EDGE_LOOP('',(#214,#215,#216,#217));
#55=EDGE_LOOP('',(#218,#219,#220,#221));
#56=EDGE_LOOP('',(#222,#223,#224,#225));
#57=EDGE_LOOP('',(#226,#227,#228,#229));
#58=EDGE_LOOP('',(#230,#231,#232,#233));
#59=EDGE_LOOP('',(#234,#235,#236,#237));
#60=EDGE_LOOP('',(#238,#239,#240,#241));
#61=EDGE_LOOP('',(#242,#243,#244,#245));
#62=EDGE_LOOP('',(#246,#247,#248,#249));
#63=EDGE_LOOP('',(#250,#251,#252,#253));
#64=EDGE_LOOP('',(#254,#255,#256,#257));
#65=EDGE_LOOP('',(#258));
#66=EDGE_LOOP('',(#259));
#67=EDGE_LOOP('',(#260));
#68=EDGE_LOOP('',(#261));
#69=EDGE_LOOP('',(#262,#263,#264,#265));
#70=EDGE_LOOP('',(#266));
#71=EDGE_LOOP('',(#267));
#72=EDGE_LOOP('',(#268));
#73=EDGE_LOOP('',(#269));
#74=LINE('',#407,#102);
#75=LINE('',#413,#103);
#76=LINE('',#419,#104);
#77=LINE('',#425,#105);
#78=LINE('',#430,#106);
#79=LINE('',#432,#107);
#80=LINE('',#434,#108);
#81=LINE('',#435,#109);
#82=LINE('',#438,#110);
#83=LINE('',#440,#111);
#84=LINE('',#441,#112);
#85=LINE('',#444,#113);
#86=LINE('',#446,#114);
#87=LINE('',#447,#115);
#88=LINE('',#449,#116);
#89=LINE('',#450,#117);
#90=LINE('',#454,#118);
#91=LINE('',#456,#119);
#92=LINE('',#458,#120);
#93=LINE('',#459,#121);
#94=LINE('',#462,#122);
#95=LINE('',#464,#123);
#96=LINE('',#465,#124);
#97=LINE('',#468,#125);
#98=LINE('',#469,#126);
#99=LINE('',#472,#127);
#100=LINE('',#473,#128);
#101=LINE('',#475,#129);
#102=VECTOR('',#332,2.);
#103=VECTOR('',#339,1.99999999999999);
#104=VECTOR('',#346,1.99999999999999);
#105=VECTOR('',#353,2.);
#106=VECTOR('',#358,10.);
#107=VECTOR('',#359,10.);
#108=VECTOR('',#360,10.);
#109=VECTOR('',#361,10.);
#110=VECTOR('',#364,10.);
#111=VECTOR('',#365,10.);
#112=VECTOR('',#366,10.);
#113=VECTOR('',#369,10.);
#114=VECTOR('',#370,10.);
#115=VECTOR('',#371,10.);
#116=VECTOR('',#374,10.);
#117=VECTOR('',#375,10.);
#118=VECTOR('',#378,10.);
#119=VECTOR('',#379,10.);
#120=VECTOR('',#380,10.);
#121=VECTOR('',#381,10.);
#122=VECTOR('',#384,10.);
#123=VECTOR('',#385,10.);
#124=VECTOR('',#386,10.);
#125=VECTOR('',#389,10.);
#126=VECTOR('',#390,10.);
#127=VECTOR('',#393,10.);
#128=VECTOR('',#394,10.);
#129=VECTOR('',#397,10.);
#130=CIRCLE('',#304,2.);
#131=CIRCLE('',#305,2.);
#132=CIRCLE('',#307,1.99999999999999);
#133=CIRCLE('',#308,1.99999999999999);
#134=CIRCLE('',#310,1.99999999999999);
#135=CIRCLE('',#311,1.99999999999999);
#136=CIRCLE('',#313,2.);
#137=CIRCLE('',#314,2.);
#138=VERTEX_POINT('',#404);
#139=VERTEX_POINT('',#406);
#140=VERTEX_POINT('',#410);
#141=VERTEX_POINT('',#412);
#142=VERTEX_POINT('',#416);
#143=VERTEX_POINT('',#418);
#144=VERTEX_POINT('',#422);
#145=VERTEX_POINT('',#424);
#146=VERTEX_POINT('',#428);
#147=VERTEX_POINT('',#429);
#148=VERTEX_POINT('',#431);
#149=VERTEX_POINT('',#433);
#150=VERTEX_POINT('',#437);
#151=VERTEX_POINT('',#439);
#152=VERTEX_POINT('',#443);
#153=VERTEX_POINT('',#445);
#154=VERTEX_POINT('',#452);
#155=VERTEX_POINT('',#453);
#156=VERTEX_POINT('',#455);
#157=VERTEX_POINT('',#457);
#158=VERTEX_POINT('',#461);
#159=VERTEX_POINT('',#463);
#160=VERTEX_POINT('',#467);
#161=VERTEX_POINT('',#471);
#162=EDGE_CURVE('',#138,#138,#130,.T.);
#163=EDGE_CURVE('',#138,#139,#74,.T.);
#164=EDGE_CURVE('',#139,#139,#131,.T.);
#165=EDGE_CURVE('',#140,#140,#132,.T.);
#166=EDGE_CURVE('',#140,#141,#75,.T.);
#167=EDGE_CURVE('',#141,#141,#133,.T.);
#168=EDGE_CURVE('',#142,#142,#134,.T.);
#169=EDGE_CURVE('',#142,#143,#76,.T.);
#170=EDGE_CURVE('',#143,#143,#135,.T.);
#171=EDGE_CURVE('',#144,#144,#136,.T.);
#172=EDGE_CURVE('',#144,#145,#77,.T.);
#173=EDGE_CURVE('',#145,#145,#137,.T.);
#174=EDGE_CURVE('',#146,#147,#78,.T.);
#175=EDGE_CURVE('',#147,#148,#79,.T.);
#176=EDGE_CURVE('',#149,#148,#80,.T.);
#177=EDGE_CURVE('',#146,#149,#81,.T.);
#178=EDGE_CURVE('',#150,#146,#82,.T.);
#179=EDGE_CURVE('',#151,#149,#83,.T.);
#180=EDGE_CURVE('',#150,#151,#84,.T.);
#181=EDGE_CURVE('',#152,#150,#85,.T.);
#182=EDGE_CURVE('',#153,#151,#86,.T.);
#183=EDGE_CURVE('',#152,#153,#87,.T.);
#184=EDGE_CURVE('',#147,#152,#88,.T.);
#185=EDGE_CURVE('',#148,#153,#89,.T.);
#186=EDGE_CURVE('',#154,#155,#90,.T.);
#187=EDGE_CURVE('',#155,#156,#91,.T.);
#188=EDGE_CURVE('',#156,#157,#92,.T.);
#189=EDGE_CURVE('',#157,#154,#93,.T.);
#190=EDGE_CURVE('',#155,#158,#94,.T.);
#191=EDGE_CURVE('',#159,#158,#95,.T.);
#192=EDGE_CURVE('',#156,#159,#96,.T.);
#193=EDGE_CURVE('',#160,#159,#97,.T.);
#194=EDGE_CURVE('',#157,#160,#98,.T.);
#195=EDGE_CURVE('',#161,#160,#99,.T.);
#196=EDGE_CURVE('',#154,#161,#100,.T.);
#197=EDGE_CURVE('',#158,#161,#101,.T.);
#198=ORIENTED_EDGE('',*,*,#162,.F.);
#199=ORIENTED_EDGE('',*,*,#163,.T.);
#200=ORIENTED_EDGE('',*,*,#164,.F.);
#201=ORIENTED_EDGE('',*,*,#163,.F.);
#202=ORIENTED_EDGE('',*,*,#165,.F.);
#203=ORIENTED_EDGE('',*,*,#166,.T.);
#204=ORIENTED_EDGE('',*,*,#167,.F.);
#205=ORIENTED_EDGE('',*,*,#166,.F.);
#206=ORIENTED_EDGE('',*,*,#168,.F.);
#207=ORIENTED_EDGE('',*,*,#169,.T.);
#208=ORIENTED_EDGE('',*,*,#170,.F.);
#209=ORIENTED_EDGE('',*,*,#169,.F.);
#210=ORIENTED_EDGE('',*,*,#171,.F.);
#211=ORIENTED_EDGE('',*,*,#172,.T.);
#212=ORIENTED_EDGE('',*,*,#173,.F.);
#213=ORIENTED_EDGE('',*,*,#172,.F.);
#214=ORIENTED_EDGE('',*,*,#174,.T.);
#215=ORIENTED_EDGE('',*,*,#175,.T.);
#216=ORIENTED_EDGE('',*,*,#176,.F.);
#217=ORIENTED_EDGE('',*,*,#177,.F.);
#218=ORIENTED_EDGE('',*,*,#178,.T.);
#219=ORIENTED_EDGE('',*,*,#177,.T.);
#220=ORIENTED_EDGE('',*,*,#179,.F.);
#221=ORIENTED_EDGE('',*,*,#180,.F.);
#222=ORIENTED_EDGE('',*,*,#181,.T.);
#223=ORIENTED_EDGE('',*,*,#180,.T.);
#224=ORIENTED_EDGE('',*,*,#182,.F.);
#225=ORIENTED_EDGE('',*,*,#183,.F.);
#226=ORIENTED_EDGE('',*,*,#184,.T.);
#227=ORIENTED_EDGE('',*,*,#183,.T.);
#228=ORIENTED_EDGE('',*,*,#185,.F.);
#229=ORIENTED_EDGE('',*,*,#175,.F.);
#230=ORIENTED_EDGE('',*,*,#186,.T.);
#231=ORIENTED_EDGE('',*,*,#187,.T.);
#232=ORIENTED_EDGE('',*,*,#188,.T.);
#233=ORIENTED_EDGE('',*,*,#189,.T.);
#234=ORIENTED_EDGE('',*,*,#184,.F.);
#235=ORIENTED_EDGE('',*,*,#174,.F.);
#236=ORIENTED_EDGE('',*,*,#178,.F.);
#237=ORIENTED_EDGE('',*,*,#181,.F.);
#238=ORIENTED_EDGE('',*,*,#190,.T.);
#239=ORIENTED_EDGE('',*,*,#191,.F.);
#240=ORIENTED_EDGE('',*,*,#192,.F.);
#241=ORIENTED_EDGE('',*,*,#187,.F.);
#242=ORIENTED_EDGE('',*,*,#192,.T.);
#243=ORIENTED_EDGE('',*,*,#193,.F.);
#244=ORIENTED_EDGE('',*,*,#194,.F.);
#245=ORIENTED_EDGE('',*,*,#188,.F.);
#246=ORIENTED_EDGE('',*,*,#194,.T.);
#247=ORIENTED_EDGE('',*,*,#195,.F.);
#248=ORIENTED_EDGE('',*,*,#196,.F.);
#249=ORIENTED_EDGE('',*,*,#189,.F.);
#250=ORIENTED_EDGE('',*,*,#196,.T.);
#251=ORIENTED_EDGE('',*,*,#197,.F.);
#252=ORIENTED_EDGE('',*,*,#190,.F.);
#253=ORIENTED_EDGE('',*,*,#186,.F.);
#254=ORIENTED_EDGE('',*,*,#197,.T.);
#255=ORIENTED_EDGE('',*,*,#195,.T.);
#256=ORIENTED_EDGE('',*,*,#193,.T.);
#257=ORIENTED_EDGE('',*,*,#191,.T.);
#258=ORIENTED_EDGE('',*,*,#164,.T.);
#259=ORIENTED_EDGE('',*,*,#167,.T.);
#260=ORIENTED_EDGE('',*,*,#170,.T.);
#261=ORIENTED_EDGE('',*,*,#173,.T.);
#262=ORIENTED_EDGE('',*,*,#176,.T.);
#263=ORIENTED_EDGE('',*,*,#185,.T.);
#264=ORIENTED_EDGE('',*,*,#182,.T.);
#265=ORIENTED_EDGE('',*,*,#179,.T.);
#266=ORIENTED_EDGE('',*,*,#162,.T.);
#267=ORIENTED_EDGE('',*,*,#165,.T.);
#268=ORIENTED_EDGE('',*,*,#168,.T.);
#269=ORIENTED_EDGE('',*,*,#171,.T.);
#270=CYLINDRICAL_SURFACE('',#303,2.);
#271=CYLINDRICAL_SURFACE('',#306,1.99999999999999);
#272=CYLINDRICAL_SURFACE('',#309,1.99999999999999);
#273=CYLINDRICAL_SURFACE('',#312,2.);
#274=ADVANCED_FACE('',(#35),#270,.F.);
#275=ADVANCED_FACE('',(#36),#271,.F.);
#276=ADVANCED_FACE('',(#37),#272,.F.);
#277=ADVANCED_FACE('',(#38),#273,.F.);
#278=ADVANCED_FACE('',(#39),#24,.T.);
#279=ADVANCED_FACE('',(#40),#25,.T.);
#280=ADVANCED_FACE('',(#41),#26,.T.);
#281=ADVANCED_FACE('',(#42),#27,.T.);
#282=ADVANCED_FACE('',(#43,#15),#28,.F.);
#283=ADVANCED_FACE('',(#44),#29,.T.);
#284=ADVANCED_FACE('',(#45),#30,.T.);
#285=ADVANCED_FACE('',(#46),#31,.T.);
#286=ADVANCED_FACE('',(#47),#32,.T.);
#287=ADVANCED_FACE('',(#48,#16,#17,#18,#19),#33,.T.);
#288=ADVANCED_FACE('',(#49,#20,#21,#22,#23),#34,.F.);
#289=CLOSED_SHELL('',(#274,#275,#276,#277,#278,#279,#280,#281,#282,#283,
#284,#285,#286,#287,#288));
#290=DERIVED_UNIT_ELEMENT(#292,1.);
#291=DERIVED_UNIT_ELEMENT(#483,-3.);
#292=(
MASS_UNIT()
NAMED_UNIT(*)
SI_UNIT(.KILO.,.GRAM.)
);
#293=DERIVED_UNIT((#290,#291));
#294=MEASURE_REPRESENTATION_ITEM('density measure',
POSITIVE_RATIO_MEASURE(7850.),#293);
#295=PROPERTY_DEFINITION_REPRESENTATION(#300,#297);
#296=PROPERTY_DEFINITION_REPRESENTATION(#301,#298);
#297=REPRESENTATION('material name',(#299),#480);
#298=REPRESENTATION('density',(#294),#480);
#299=DESCRIPTIVE_REPRESENTATION_ITEM('Steel','Steel');
#300=PROPERTY_DEFINITION('material property','material name',#490);
#301=PROPERTY_DEFINITION('material property','density of part',#490);
#302=AXIS2_PLACEMENT_3D('',#402,#326,#327);
#303=AXIS2_PLACEMENT_3D('',#403,#328,#329);
#304=AXIS2_PLACEMENT_3D('',#405,#330,#331);
#305=AXIS2_PLACEMENT_3D('',#408,#333,#334);
#306=AXIS2_PLACEMENT_3D('',#409,#335,#336);
#307=AXIS2_PLACEMENT_3D('',#411,#337,#338);
#308=AXIS2_PLACEMENT_3D('',#414,#340,#341);
#309=AXIS2_PLACEMENT_3D('',#415,#342,#343);
#310=AXIS2_PLACEMENT_3D('',#417,#344,#345);
#311=AXIS2_PLACEMENT_3D('',#420,#347,#348);
#312=AXIS2_PLACEMENT_3D('',#421,#349,#350);
#313=AXIS2_PLACEMENT_3D('',#423,#351,#352);
#314=AXIS2_PLACEMENT_3D('',#426,#354,#355);
#315=AXIS2_PLACEMENT_3D('',#427,#356,#357);
#316=AXIS2_PLACEMENT_3D('',#436,#362,#363);
#317=AXIS2_PLACEMENT_3D('',#442,#367,#368);
#318=AXIS2_PLACEMENT_3D('',#448,#372,#373);
#319=AXIS2_PLACEMENT_3D('',#451,#376,#377);
#320=AXIS2_PLACEMENT_3D('',#460,#382,#383);
#321=AXIS2_PLACEMENT_3D('',#466,#387,#388);
#322=AXIS2_PLACEMENT_3D('',#470,#391,#392);
#323=AXIS2_PLACEMENT_3D('',#474,#395,#396);
#324=AXIS2_PLACEMENT_3D('',#476,#398,#399);
#325=AXIS2_PLACEMENT_3D('',#477,#400,#401);
#326=DIRECTION('axis',(0.,0.,1.));
#327=DIRECTION('refdir',(1.,0.,0.));
#328=DIRECTION('center_axis',(0.,0.,1.));
#329=DIRECTION('ref_axis',(-1.,0.,0.));
#330=DIRECTION('center_axis',(0.,0.,1.));
#331=DIRECTION('ref_axis',(-1.,0.,0.));
#332=DIRECTION('',(0.,0.,1.));
#333=DIRECTION('center_axis',(0.,0.,-1.));
#334=DIRECTION('ref_axis',(-1.,0.,0.));
#335=DIRECTION('center_axis',(0.,0.,1.));
#336=DIRECTION('ref_axis',(-1.,0.,0.));
#337=DIRECTION('center_axis',(0.,0.,1.));
#338=DIRECTION('ref_axis',(-1.,0.,0.));
#339=DIRECTION('',(0.,0.,1.));
#340=DIRECTION('center_axis',(0.,0.,-1.));
#341=DIRECTION('ref_axis',(-1.,0.,0.));
#342=DIRECTION('center_axis',(0.,0.,1.));
#343=DIRECTION('ref_axis',(-1.,0.,0.));
#344=DIRECTION('center_axis',(0.,0.,1.));
#345=DIRECTION('ref_axis',(-1.,0.,0.));
#346=DIRECTION('',(0.,0.,1.));
#347=DIRECTION('center_axis',(0.,0.,-1.));
#348=DIRECTION('ref_axis',(-1.,0.,0.));
#349=DIRECTION('center_axis',(0.,0.,1.));
#350=DIRECTION('ref_axis',(-1.,0.,0.));
#351=DIRECTION('center_axis',(0.,0.,1.));
#352=DIRECTION('ref_axis',(-1.,0.,0.));
#353=DIRECTION('',(0.,0.,1.));
#354=DIRECTION('center_axis',(0.,0.,-1.));
#355=DIRECTION('ref_axis',(-1.,0.,0.));
#356=DIRECTION('center_axis',(1.,0.,0.));
#357=DIRECTION('ref_axis',(0.,1.,0.));
#358=DIRECTION('',(0.,1.,0.));
#359=DIRECTION('',(0.,0.,1.));
#360=DIRECTION('',(0.,1.,0.));
#361=DIRECTION('',(0.,0.,1.));
#362=DIRECTION('center_axis',(0.,1.,0.));
#363=DIRECTION('ref_axis',(-1.,0.,0.));
#364=DIRECTION('',(-1.,0.,0.));
#365=DIRECTION('',(-1.,0.,0.));
#366=DIRECTION('',(0.,0.,1.));
#367=DIRECTION('center_axis',(-1.,0.,0.));
#368=DIRECTION('ref_axis',(0.,-1.,0.));
#369=DIRECTION('',(0.,-1.,0.));
#370=DIRECTION('',(0.,-1.,0.));
#371=DIRECTION('',(0.,0.,1.));
#372=DIRECTION('center_axis',(0.,-1.,0.));
#373=DIRECTION('ref_axis',(1.,0.,0.));
#374=DIRECTION('',(1.,0.,0.));
#375=DIRECTION('',(1.,0.,0.));
#376=DIRECTION('center_axis',(0.,0.,1.));
#377=DIRECTION('ref_axis',(-1.,0.,0.));
#378=DIRECTION('',(1.,1.48029736616688E-16,0.));
#379=DIRECTION('',(0.,-1.,0.));
#380=DIRECTION('',(-1.,0.,0.));
#381=DIRECTION('',(0.,1.,0.));
#382=DIRECTION('center_axis',(1.,0.,0.));
#383=DIRECTION('ref_axis',(0.,1.,0.));
#384=DIRECTION('',(0.,0.,1.));
#385=DIRECTION('',(0.,1.,0.));
#386=DIRECTION('',(0.,0.,1.));
#387=DIRECTION('center_axis',(0.,-1.,0.));
#388=DIRECTION('ref_axis',(1.,0.,0.));
#389=DIRECTION('',(1.,0.,0.));
#390=DIRECTION('',(0.,0.,1.));
#391=DIRECTION('center_axis',(-1.,0.,0.));
#392=DIRECTION('ref_axis',(0.,-1.,0.));
#393=DIRECTION('',(0.,-1.,0.));
#394=DIRECTION('',(0.,0.,1.));
#395=DIRECTION('center_axis',(-1.48029736616688E-16,1.,0.));
#396=DIRECTION('ref_axis',(-1.,-1.48029736616688E-16,0.));
#397=DIRECTION('',(-1.,-1.48029736616688E-16,0.));
#398=DIRECTION('center_axis',(0.,0.,1.));
#399=DIRECTION('ref_axis',(1.,0.,0.));
#400=DIRECTION('center_axis',(0.,0.,1.));
#401=DIRECTION('ref_axis',(-1.,0.,0.));
#402=CARTESIAN_POINT('',(0.,0.,0.));
#403=CARTESIAN_POINT('Origin',(55.44,46.07,2.));
#404=CARTESIAN_POINT('',(57.44,46.07,69.));
#405=CARTESIAN_POINT('Origin',(55.44,46.07,69.));
#406=CARTESIAN_POINT('',(57.44,46.07,77.));
#407=CARTESIAN_POINT('',(57.44,46.07,2.));
#408=CARTESIAN_POINT('Origin',(55.44,46.07,77.));
#409=CARTESIAN_POINT('Origin',(101.47,-53.59,2.));
#410=CARTESIAN_POINT('',(103.47,-53.59,69.));
#411=CARTESIAN_POINT('Origin',(101.47,-53.59,69.));
#412=CARTESIAN_POINT('',(103.47,-53.59,77.));
#413=CARTESIAN_POINT('',(103.47,-53.59,2.));
#414=CARTESIAN_POINT('Origin',(101.47,-53.59,77.));
#415=CARTESIAN_POINT('Origin',(100.61,46.07,2.));
#416=CARTESIAN_POINT('',(102.61,46.07,69.));
#417=CARTESIAN_POINT('Origin',(100.61,46.07,69.));
#418=CARTESIAN_POINT('',(102.61,46.07,77.));
#419=CARTESIAN_POINT('',(102.61,46.07,2.));
#420=CARTESIAN_POINT('Origin',(100.61,46.07,77.));
#421=CARTESIAN_POINT('Origin',(56.3,-53.72,2.));
#422=CARTESIAN_POINT('',(58.3,-53.72,69.));
#423=CARTESIAN_POINT('Origin',(56.3,-53.72,69.));
#424=CARTESIAN_POINT('',(58.3,-53.72,77.));
#425=CARTESIAN_POINT('',(58.3,-53.72,2.));
#426=CARTESIAN_POINT('Origin',(56.3,-53.72,77.));
#427=CARTESIAN_POINT('Origin',(52.,-58.,67.));
#428=CARTESIAN_POINT('',(52.,-58.,67.));
#429=CARTESIAN_POINT('',(52.,58.,67.));
#430=CARTESIAN_POINT('',(52.,-58.,67.));
#431=CARTESIAN_POINT('',(52.,58.,69.));
#432=CARTESIAN_POINT('',(52.,58.,67.));
#433=CARTESIAN_POINT('',(52.,-58.,69.));
#434=CARTESIAN_POINT('',(52.,-29.,69.));
#435=CARTESIAN_POINT('',(52.,-58.,67.));
#436=CARTESIAN_POINT('Origin',(108.,-58.,67.));
#437=CARTESIAN_POINT('',(108.,-58.,67.));
#438=CARTESIAN_POINT('',(108.,-58.,67.));
#439=CARTESIAN_POINT('',(108.,-58.,69.));
#440=CARTESIAN_POINT('',(94.,-58.,69.));
#441=CARTESIAN_POINT('',(108.,-58.,67.));
#442=CARTESIAN_POINT('Origin',(108.,58.,67.));
#443=CARTESIAN_POINT('',(108.,58.,67.));
#444=CARTESIAN_POINT('',(108.,58.,67.));
#445=CARTESIAN_POINT('',(108.,58.,69.));
#446=CARTESIAN_POINT('',(108.,29.,69.));
#447=CARTESIAN_POINT('',(108.,58.,67.));
#448=CARTESIAN_POINT('Origin',(52.,58.,67.));
#449=CARTESIAN_POINT('',(52.,58.,67.));
#450=CARTESIAN_POINT('',(66.,58.,69.));
#451=CARTESIAN_POINT('Origin',(80.,2.66453525910038E-14,67.));
#452=CARTESIAN_POINT('',(50.0000000000001,60.5000000000001,67.));
#453=CARTESIAN_POINT('',(110.,60.5000000000001,67.));
#454=CARTESIAN_POINT('',(50.0000000000001,60.5000000000001,67.));
#455=CARTESIAN_POINT('',(110.,-60.5,67.));
#456=CARTESIAN_POINT('',(110.,60.5000000000001,67.));
#457=CARTESIAN_POINT('',(50.0000000000001,-60.5,67.));
#458=CARTESIAN_POINT('',(110.,-60.5,67.));
#459=CARTESIAN_POINT('',(50.0000000000001,-60.5,67.));
#460=CARTESIAN_POINT('Origin',(110.,-60.5,69.));
#461=CARTESIAN_POINT('',(110.,60.5000000000001,77.));
#462=CARTESIAN_POINT('',(110.,60.5000000000001,67.));
#463=CARTESIAN_POINT('',(110.,-60.5,77.));
#464=CARTESIAN_POINT('',(110.,60.5000000000001,77.));
#465=CARTESIAN_POINT('',(110.,-60.5,69.));
#466=CARTESIAN_POINT('Origin',(50.0000000000001,-60.5,69.));
#467=CARTESIAN_POINT('',(50.0000000000001,-60.5,77.));
#468=CARTESIAN_POINT('',(110.,-60.5,77.));
#469=CARTESIAN_POINT('',(50.0000000000001,-60.5,69.));
#470=CARTESIAN_POINT('Origin',(50.0000000000001,60.5000000000001,69.));
#471=CARTESIAN_POINT('',(50.0000000000001,60.5000000000001,77.));
#472=CARTESIAN_POINT('',(50.0000000000001,-60.5,77.));
#473=CARTESIAN_POINT('',(50.0000000000001,60.5000000000001,69.));
#474=CARTESIAN_POINT('Origin',(110.,60.5000000000001,69.));
#475=CARTESIAN_POINT('',(50.0000000000001,60.5000000000001,77.));
#476=CARTESIAN_POINT('Origin',(80.,2.66453525910038E-14,77.));
#477=CARTESIAN_POINT('Origin',(80.,2.66453525910038E-14,69.));
#478=UNCERTAINTY_MEASURE_WITH_UNIT(LENGTH_MEASURE(0.01),#482,
'DISTANCE_ACCURACY_VALUE',
'Maximum model space distance between geometric entities at asserted c
onnectivities');
#479=UNCERTAINTY_MEASURE_WITH_UNIT(LENGTH_MEASURE(0.01),#482,
'DISTANCE_ACCURACY_VALUE',
'Maximum model space distance between geometric entities at asserted c
onnectivities');
#480=(
GEOMETRIC_REPRESENTATION_CONTEXT(3)
GLOBAL_UNCERTAINTY_ASSIGNED_CONTEXT((#478))
GLOBAL_UNIT_ASSIGNED_CONTEXT((#482,#484,#485))
REPRESENTATION_CONTEXT('','3D')
);
#481=(
GEOMETRIC_REPRESENTATION_CONTEXT(3)
GLOBAL_UNCERTAINTY_ASSIGNED_CONTEXT((#479))
GLOBAL_UNIT_ASSIGNED_CONTEXT((#482,#484,#485))
REPRESENTATION_CONTEXT('','3D')
);
#482=(
LENGTH_UNIT()
NAMED_UNIT(*)
SI_UNIT(.MILLI.,.METRE.)
);
#483=(
LENGTH_UNIT()
NAMED_UNIT(*)
SI_UNIT($,.METRE.)
);
#484=(
NAMED_UNIT(*)
PLANE_ANGLE_UNIT()
SI_UNIT($,.RADIAN.)
);
#485=(
NAMED_UNIT(*)
SI_UNIT($,.STERADIAN.)
SOLID_ANGLE_UNIT()
);
#486=SHAPE_DEFINITION_REPRESENTATION(#487,#488);
#487=PRODUCT_DEFINITION_SHAPE('',$,#490);
#488=SHAPE_REPRESENTATION('',(#302),#480);
#489=PRODUCT_DEFINITION_CONTEXT('part definition',#494,'design');
#490=PRODUCT_DEFINITION('FusionComponent','FusionComponent',#491,#489);
#491=PRODUCT_DEFINITION_FORMATION('',$,#496);
#492=PRODUCT_RELATED_PRODUCT_CATEGORY('FusionComponent',
'FusionComponent',(#496));
#493=APPLICATION_PROTOCOL_DEFINITION('international standard',
'automotive_design',2009,#494);
#494=APPLICATION_CONTEXT(
'Core Data for Automotive Mechanical Design Process');
#495=PRODUCT_CONTEXT('part definition',#494,'mechanical');
#496=PRODUCT('FusionComponent','FusionComponent',$,(#495));
#497=PRESENTATION_STYLE_ASSIGNMENT((#498));
#498=SURFACE_STYLE_USAGE(.BOTH.,#499);
#499=SURFACE_SIDE_STYLE('',(#500));
#500=SURFACE_STYLE_FILL_AREA(#501);
#501=FILL_AREA_STYLE('Steel - Satin',(#502));
#502=FILL_AREA_STYLE_COLOUR('Steel - Satin',#503);
#503=COLOUR_RGB('Steel - Satin',0.627450980392157,0.627450980392157,0.627450980392157);
ENDSEC;
END-ISO-10303-21;
